<svg width="45" height="45" viewBox="0 0 45 45" fill="none" xmlns="http://www.w3.org/2000/svg">
<rect width="45" height="45" rx="22.5" fill="white"/>
<path d="M0 22.5C0 10.0736 10.0736 0 22.5 0C34.9264 0 45 10.0736 45 22.5C45 34.9264 34.9264 45 22.5 45C10.0736 45 0 34.9264 0 22.5Z" fill="url(#paint0_radial)"/>
<g filter="url(#filter0_di)">
<path d="M18.3731 26.0419L19.8279 25.706C19.8585 25.6989 19.909 25.6873 19.9708 25.6674C20.3722 25.5595 20.716 25.3001 20.93 24.9438C21.1439 24.5875 21.2112 24.1621 21.1177 23.7573C21.1157 23.7484 21.1137 23.74 21.1117 23.7311C21.0638 23.5371 20.9799 23.3537 20.8645 23.1906C20.7013 22.9839 20.4995 22.8111 20.2702 22.6816C20.0002 22.5278 19.7177 22.3972 19.4257 22.2911L17.83 21.7093C16.9346 21.3768 16.0391 21.0527 15.1353 20.7366C14.5492 20.5283 14.0525 20.3455 13.621 20.2122C13.5396 20.1871 13.4497 20.1621 13.3767 20.1369C12.855 19.9772 12.4885 19.911 12.1784 19.9088C11.9712 19.9012 11.7649 19.9388 11.5738 20.019C11.3746 20.1049 11.1957 20.2318 11.0488 20.3914C10.9758 20.4744 10.9071 20.5612 10.8431 20.6513C10.783 20.7432 10.728 20.8382 10.6781 20.9359C10.6232 21.0408 10.576 21.1495 10.537 21.2613C10.2414 22.1356 10.0944 23.0533 10.1022 23.9762C10.108 24.8106 10.131 25.8815 10.5905 26.6074C10.7013 26.7937 10.8498 26.9547 11.0266 27.0801C11.3538 27.3057 11.6843 27.3354 12.0281 27.3601C12.542 27.397 13.0397 27.2708 13.5358 27.1563L18.369 26.0405L18.3731 26.0419Z" fill="white"/>
<path d="M34.6034 18.3214C34.2057 17.4885 33.6711 16.7282 33.022 16.0719C32.9381 15.9886 32.8482 15.9115 32.753 15.8413C32.6651 15.7754 32.5738 15.7142 32.4795 15.6579C32.3825 15.6048 32.2827 15.5569 32.1806 15.5144C31.9788 15.4353 31.7626 15.3997 31.546 15.4098C31.3389 15.4215 31.1369 15.4782 30.9539 15.5759C30.6765 15.7137 30.3764 15.9352 29.9773 16.3061C29.9222 16.3608 29.8528 16.4226 29.7906 16.4808C29.4613 16.7903 29.095 17.1718 28.6591 17.6161C27.9857 18.2963 27.3226 18.9803 26.6635 19.6717L25.4843 20.8941C25.2683 21.1174 25.0717 21.3587 24.8965 21.6152C24.7473 21.8321 24.6418 22.0759 24.5859 22.3331C24.5535 22.5304 24.5584 22.732 24.6003 22.9274C24.6023 22.9363 24.6042 22.9447 24.6063 22.9536C24.6997 23.3585 24.9467 23.7113 25.2952 23.9377C25.6436 24.1642 26.0664 24.2466 26.4745 24.1676C26.5391 24.1583 26.5894 24.1472 26.6198 24.1397L32.91 22.6875C33.4058 22.573 33.9088 22.4681 34.3541 22.2098C34.6527 22.0367 34.9368 21.8652 35.1315 21.5191C35.2355 21.3289 35.2985 21.1191 35.3162 20.9031C35.4122 20.0466 34.964 19.0739 34.6034 18.3214Z" fill="white"/>
<path d="M23.3459 20.9673C23.8013 20.3953 23.7997 19.5426 23.8401 18.8456C23.9759 16.5167 24.1191 14.1874 24.2322 11.8572C24.2754 10.9746 24.3701 10.1039 24.317 9.21462C24.2733 8.48096 24.2675 7.63862 23.8034 7.03655C22.9843 5.97485 21.2391 6.06215 20.0483 6.22687C19.6836 6.27747 19.3181 6.34549 18.9557 6.43243C18.5933 6.51937 18.2346 6.61433 17.8836 6.72664C16.7411 7.10058 15.1351 7.78698 14.8638 9.10228C14.7109 9.84586 15.0747 10.6065 15.357 11.2851C15.6992 12.1076 16.1664 12.8486 16.5922 13.6229C17.718 15.6671 18.8647 17.6985 20.0081 19.7321C20.3495 20.3392 20.7218 21.1081 21.382 21.4226C21.4256 21.4416 21.4702 21.4585 21.5155 21.473C21.8115 21.585 22.1341 21.6065 22.4424 21.5349C22.461 21.5306 22.4792 21.5264 22.4974 21.5222C22.7821 21.4449 23.0398 21.2902 23.2419 21.0754C23.2784 21.0412 23.3131 21.0051 23.3459 20.9673Z" fill="white"/>
<path d="M22.7986 27.2006C22.6205 26.9505 22.3679 26.7631 22.0769 26.6652C21.7858 26.5672 21.4713 26.5638 21.1782 26.6554C21.1093 26.6782 21.0422 26.706 20.9774 26.7386C20.8772 26.7896 20.7815 26.8492 20.6916 26.9166C20.4295 27.1107 20.2089 27.3628 20.0081 27.6156C19.9571 27.6801 19.9106 27.766 19.85 27.8211L18.839 29.2114C18.266 29.9904 17.7008 30.7712 17.1404 31.5645C16.7748 32.0766 16.4585 32.5091 16.2087 32.8918C16.1614 32.9639 16.1122 33.0443 16.0673 33.1084C15.7679 33.5716 15.5984 33.9095 15.5114 34.2106C15.4461 34.4107 15.4255 34.6226 15.4511 34.8315C15.4791 35.0491 15.5525 35.2583 15.6667 35.4457C15.7274 35.5397 15.7928 35.6305 15.8627 35.7179C15.9353 35.802 16.0124 35.8821 16.0937 35.9578C16.1804 36.0405 16.2733 36.1166 16.3713 36.1855C17.07 36.6708 17.8347 37.0195 18.6391 37.2891C19.3084 37.511 20.0041 37.6438 20.7082 37.684C20.8279 37.69 20.948 37.6875 21.0674 37.6762C21.1781 37.6666 21.2881 37.6511 21.3972 37.63C21.5062 37.6046 21.6137 37.5733 21.7193 37.5365C21.9249 37.4596 22.112 37.3406 22.2687 37.1869C22.417 37.0385 22.531 36.8595 22.603 36.6625C22.7198 36.3712 22.7965 36.0015 22.8467 35.4525C22.8511 35.3744 22.8622 35.2808 22.8699 35.195C22.9096 34.7395 22.9276 34.2045 22.9565 33.5755C23.0055 32.608 23.0437 31.6448 23.0738 30.6789C23.0738 30.6789 23.138 28.9622 23.1378 28.9613C23.1525 28.5658 23.14 28.1274 23.03 27.7336C22.9816 27.5447 22.9035 27.3648 22.7986 27.2006Z" fill="white"/>
<path d="M34.2239 29.8853C34.0126 29.654 33.7133 29.4233 33.2411 29.1383C33.173 29.1003 33.0932 29.0496 33.0194 29.0055C32.6263 28.7694 32.1529 28.5211 31.5998 28.2211C30.7501 27.7552 29.8998 27.3011 29.0416 26.8508L27.5251 26.0477C27.4465 26.0247 27.3666 25.968 27.2925 25.9323C27.0012 25.7932 26.6924 25.6633 26.3718 25.6038C26.2614 25.5826 26.1493 25.5709 26.0368 25.5691C25.9643 25.5682 25.8918 25.5726 25.8199 25.5823C25.5169 25.6292 25.2363 25.7705 25.0184 25.9862C24.8004 26.2018 24.656 26.4808 24.6059 26.7832C24.5829 26.9756 24.5901 27.1704 24.6271 27.3606C24.7015 27.7636 24.8818 28.1622 25.0684 28.5113L25.8788 30.027C26.3298 30.8819 26.7862 31.7318 27.254 32.579C27.5558 33.1317 27.807 33.6046 28.0423 33.9966C28.0869 34.0704 28.1374 34.1497 28.1756 34.218C28.4619 34.6893 28.6919 34.9859 28.9251 35.1986C29.0761 35.3442 29.2571 35.4551 29.4554 35.5235C29.6639 35.5925 29.8845 35.6169 30.103 35.5953C30.2141 35.5821 30.3244 35.563 30.4335 35.5381C30.541 35.5093 30.6468 35.4749 30.7507 35.435C30.8628 35.3928 30.9717 35.3426 31.0765 35.2846C31.6917 34.9399 32.2588 34.5156 32.7631 34.0226C33.3679 33.4278 33.9023 32.7791 34.318 32.0365C34.3757 31.9315 34.4258 31.8224 34.4677 31.7101C34.5069 31.6062 34.5407 31.5004 34.5692 31.393C34.5937 31.2839 34.6125 31.1736 34.6255 31.0625C34.6461 30.8444 34.6206 30.6244 34.5507 30.4168C34.482 30.2179 34.3704 30.0364 34.2239 29.8853Z" fill="white"/>
</g>
<defs>
<filter id="filter0_di" x="7.9844" y="4.53933" width="29.4628" height="35.7949" filterUnits="userSpaceOnUse" color-interpolation-filters="sRGB">
<feFlood flood-opacity="0" result="BackgroundImageFix"/>
<feColorMatrix in="SourceAlpha" type="matrix" values="0 0 0 0 0 0 0 0 0 0 0 0 0 0 0 0 0 0 127 0" result="hardAlpha"/>
<feOffset dy="0.529412"/>
<feGaussianBlur stdDeviation="1.05882"/>
<feColorMatrix type="matrix" values="0 0 0 0 0.804167 0 0 0 0 0 0 0 0 0 0 0 0 0 0.55 0"/>
<feBlend mode="normal" in2="BackgroundImageFix" result="effect1_dropShadow"/>
<feBlend mode="normal" in="SourceGraphic" in2="effect1_dropShadow" result="shape"/>
<feColorMatrix in="SourceAlpha" type="matrix" values="0 0 0 0 0 0 0 0 0 0 0 0 0 0 0 0 0 0 127 0" result="hardAlpha"/>
<feOffset dy="0.688235"/>
<feGaussianBlur stdDeviation="0.661765"/>
<feComposite in2="hardAlpha" operator="arithmetic" k2="-1" k3="1"/>
<feColorMatrix type="matrix" values="0 0 0 0 1 0 0 0 0 0 0 0 0 0 0.18 0 0 0 0.25 0"/>
<feBlend mode="normal" in2="shape" result="effect2_innerShadow"/>
</filter>
<radialGradient id="paint0_radial" cx="0" cy="0" r="1" gradientUnits="userSpaceOnUse" gradientTransform="translate(22.5 -5.24117) rotate(90) scale(53.7353)">
<stop stop-color="#FF78A1"/>
<stop offset="0.512574" stop-color="#FE375C"/>
<stop offset="1" stop-color="#FF0000"/>
</radialGradient>
</defs>
</svg>
