#define iconify_width 10
#define iconify_height 10
static unsigned char iconify_bits[] = {
   0x00, 0x00, 0x00, 0x00, 0x00, 0x00, 0x00, 0x00, 0x00, 0x00, 0xe0, 0x01,
   0x20, 0x01, 0x20, 0x01, 0xe0, 0x01, 0x00, 0x00 };
