#define max_toggled_width 10
#define max_toggled_height 10
static unsigned char max_toggled_bits[] = {
   0xfc, 0x03, 0x04, 0x02, 0x04, 0x02, 0x05, 0x02, 0x05, 0x02, 0x05, 0x02,
   0x05, 0x02, 0xfd, 0x03, 0x01, 0x00, 0x7f, 0x00 };
